<?xml version="1.0" standalone="no"?>
<!DOCTYPE svg PUBLIC "-//W3C//DTD SVG 20010904//EN"
 "http://www.w3.org/TR/2001/REC-SVG-20010904/DTD/svg10.dtd">
<svg version="1.0" xmlns="http://www.w3.org/2000/svg"
 width="700.000000pt" height="700.000000pt" viewBox="0 0 700.000000 700.000000"
 preserveAspectRatio="xMidYMid meet">
<metadata>
Created by potrace 1.11, written by Peter Selinger 2001-2013
</metadata>
<g transform="translate(0.000000,700.000000) scale(0.100000,-0.100000)"
fill="#000000" stroke="none">
<path d="M3320 6980 c-390 -85 -672 -414 -692 -807 -1 -24 -7 -44 -12 -44 -6
-1 -454 -2 -996 -3 -542 -1 -1001 -6 -1020 -10 -65 -15 -109 -54 -142 -126
l-21 -45 0 -2860 c0 -1573 3 -2881 7 -2907 10 -65 53 -120 118 -152 l53 -26
2895 2 2895 3 45 25 c54 31 97 90 106 150 4 25 7 1330 7 2900 0 2279 -2 2863
-12 2893 -17 50 -64 103 -115 130 l-41 21 -1010 1 c-1000 0 -1010 1 -1011 20
-15 284 -136 518 -356 684 -87 66 -244 135 -353 156 -80 16 -262 13 -345 -5z
m288 -434 c205 -54 344 -250 325 -461 -16 -181 -146 -335 -321 -380 -314 -82
-603 193 -537 511 51 240 295 391 533 330z m-1857 -1202 c1 -189 2 -347 3
-351 17 -76 82 -149 151 -170 52 -16 3140 -16 3192 0 53 16 128 92 142 142 7
25 11 165 11 381 l0 342 434 0 c311 -1 436 -4 439 -12 2 -6 3 -1187 3 -2625
l-1 -2614 -2615 1 c-1438 0 -2620 1 -2625 1 -13 1 -15 5233 -2 5242 6 4 203 7
438 7 l429 0 1 -344z"/>
<path d="M4753 3862 c-103 -91 -217 -190 -251 -221 -35 -31 -76 -67 -91 -81
-15 -14 -56 -50 -91 -80 -35 -30 -71 -62 -80 -70 -9 -8 -70 -62 -135 -120 -66
-58 -125 -109 -131 -115 -6 -5 -44 -39 -84 -75 -198 -174 -271 -239 -329 -290
-35 -30 -80 -71 -101 -90 -21 -19 -51 -46 -66 -59 -36 -30 -162 -141 -184
-161 -33 -30 -106 -95 -127 -113 -21 -18 -23 -17 -215 133 -106 83 -208 164
-227 178 -19 15 -62 49 -95 75 -68 53 -68 53 -221 172 -60 47 -117 91 -125 98
-8 7 -43 34 -78 61 l-63 50 -199 -199 c-121 -121 -196 -203 -192 -210 6 -10
92 -111 127 -149 6 -6 82 -94 169 -196 88 -102 162 -187 165 -190 3 -3 73 -84
156 -180 82 -96 152 -177 155 -180 3 -3 32 -36 65 -75 90 -105 109 -127 120
-139 6 -6 69 -78 140 -161 71 -82 145 -168 164 -190 20 -22 58 -66 85 -98 47
-54 50 -56 65 -38 9 10 52 58 96 106 44 48 91 99 104 114 13 14 65 71 116 126
50 55 118 129 150 165 33 36 64 70 70 76 17 18 169 186 185 204 8 9 58 63 110
120 52 57 103 112 113 124 18 20 123 136 238 260 31 34 76 83 100 110 24 27
58 64 74 81 17 18 48 52 69 76 36 41 198 217 256 280 14 15 41 44 60 65 63 71
235 259 240 264 3 3 27 30 54 60 27 30 77 84 110 120 33 36 73 79 88 96 l29
31 -200 200 -200 201 -188 -166z"/>
</g>
</svg>
